<mxfile host="65bd71144e">
    <diagram id="-8HKuyvEdFLfwyqxayBJ" name="Page-1">
        <mxGraphModel dx="899" dy="539" grid="1" gridSize="10" guides="1" tooltips="1" connect="1" arrows="1" fold="1" page="1" pageScale="1" pageWidth="850" pageHeight="1100" math="0" shadow="0">
            <root>
                <mxCell id="0"/>
                <mxCell id="1" parent="0"/>
                <mxCell id="2" value="&lt;div style=&quot;color: rgb(255, 255, 255); background-color: rgb(0, 0, 0); font-family: &amp;quot;Droid Sans Mono&amp;quot;, &amp;quot;monospace&amp;quot;, monospace; font-size: 14px; line-height: 19px;&quot;&gt;&lt;div style=&quot;line-height: 19px;&quot;&gt;&lt;div style=&quot;line-height: 19px;&quot;&gt;&lt;span style=&quot;color: #4ec9b0;&quot;&gt;Review&lt;/span&gt;&lt;/div&gt;&lt;/div&gt;&lt;/div&gt;" style="swimlane;fontStyle=0;childLayout=stackLayout;horizontal=1;startSize=26;fillColor=none;horizontalStack=0;resizeParent=1;resizeParentMax=0;resizeLast=0;collapsible=1;marginBottom=0;html=1;" vertex="1" parent="1">
                    <mxGeometry x="370" y="40" width="140" height="210" as="geometry">
                        <mxRectangle x="370" y="40" width="90" height="30" as="alternateBounds"/>
                    </mxGeometry>
                </mxCell>
                <mxCell id="3" value="&lt;div style=&quot;color: rgb(255, 255, 255); background-color: rgb(0, 0, 0); font-family: &amp;quot;Droid Sans Mono&amp;quot;, &amp;quot;monospace&amp;quot;, monospace; font-size: 14px; line-height: 19px;&quot;&gt;&lt;span style=&quot;color: #9cdcfe;&quot;&gt;customer_id&lt;/span&gt;&lt;/div&gt;" style="text;strokeColor=none;fillColor=none;align=left;verticalAlign=top;spacingLeft=4;spacingRight=4;overflow=hidden;rotatable=0;points=[[0,0.5],[1,0.5]];portConstraint=eastwest;whiteSpace=wrap;html=1;" vertex="1" parent="2">
                    <mxGeometry y="26" width="140" height="26" as="geometry"/>
                </mxCell>
                <mxCell id="4" value="&lt;div style=&quot;color: rgb(255, 255, 255); background-color: rgb(0, 0, 0); font-family: &amp;quot;Droid Sans Mono&amp;quot;, &amp;quot;monospace&amp;quot;, monospace; font-size: 14px; line-height: 19px;&quot;&gt;&lt;span style=&quot;color: #9cdcfe;&quot;&gt;drinks_id&lt;/span&gt;&lt;/div&gt;" style="text;strokeColor=none;fillColor=none;align=left;verticalAlign=top;spacingLeft=4;spacingRight=4;overflow=hidden;rotatable=0;points=[[0,0.5],[1,0.5]];portConstraint=eastwest;whiteSpace=wrap;html=1;" vertex="1" parent="2">
                    <mxGeometry y="52" width="140" height="28" as="geometry"/>
                </mxCell>
                <mxCell id="5" value="&lt;div style=&quot;color: rgb(255, 255, 255); background-color: rgb(0, 0, 0); font-family: &amp;quot;Droid Sans Mono&amp;quot;, &amp;quot;monospace&amp;quot;, monospace; font-size: 14px; line-height: 19px;&quot;&gt;&lt;span style=&quot;color: #9cdcfe;&quot;&gt;comment&lt;/span&gt;&lt;/div&gt;" style="text;strokeColor=none;fillColor=none;align=left;verticalAlign=top;spacingLeft=4;spacingRight=4;overflow=hidden;rotatable=0;points=[[0,0.5],[1,0.5]];portConstraint=eastwest;whiteSpace=wrap;html=1;" vertex="1" parent="2">
                    <mxGeometry y="80" width="140" height="60" as="geometry"/>
                </mxCell>
                <mxCell id="17" value="&lt;div style=&quot;color: rgb(255, 255, 255); background-color: rgb(0, 0, 0); font-family: &amp;quot;Droid Sans Mono&amp;quot;, &amp;quot;monospace&amp;quot;, monospace; font-size: 14px; line-height: 19px;&quot;&gt;&lt;div style=&quot;line-height: 19px;&quot;&gt;&lt;span style=&quot;color: #9cdcfe;&quot;&gt;rating&lt;/span&gt;&lt;/div&gt;&lt;/div&gt;" style="text;strokeColor=none;fillColor=none;align=left;verticalAlign=top;spacingLeft=4;spacingRight=4;overflow=hidden;rotatable=0;points=[[0,0.5],[1,0.5]];portConstraint=eastwest;whiteSpace=wrap;html=1;" vertex="1" parent="2">
                    <mxGeometry y="140" width="140" height="40" as="geometry"/>
                </mxCell>
                <mxCell id="18" value="&lt;div style=&quot;color: rgb(255, 255, 255); background-color: rgb(0, 0, 0); font-family: &amp;quot;Droid Sans Mono&amp;quot;, &amp;quot;monospace&amp;quot;, monospace; font-size: 14px; line-height: 19px;&quot;&gt;&lt;div style=&quot;line-height: 19px;&quot;&gt;&lt;span style=&quot;color: #9cdcfe;&quot;&gt;id&lt;/span&gt;&lt;/div&gt;&lt;/div&gt;" style="text;strokeColor=none;fillColor=none;align=left;verticalAlign=top;spacingLeft=4;spacingRight=4;overflow=hidden;rotatable=0;points=[[0,0.5],[1,0.5]];portConstraint=eastwest;whiteSpace=wrap;html=1;" vertex="1" parent="2">
                    <mxGeometry y="180" width="140" height="30" as="geometry"/>
                </mxCell>
                <mxCell id="6" value="&lt;div style=&quot;color: rgb(255, 255, 255); background-color: rgb(0, 0, 0); font-family: &amp;quot;Droid Sans Mono&amp;quot;, &amp;quot;monospace&amp;quot;, monospace; font-size: 14px; line-height: 19px;&quot;&gt;&lt;span style=&quot;color: #4ec9b0;&quot;&gt;Drink&lt;/span&gt;&lt;/div&gt;" style="swimlane;fontStyle=0;childLayout=stackLayout;horizontal=1;startSize=26;fillColor=none;horizontalStack=0;resizeParent=1;resizeParentMax=0;resizeLast=0;collapsible=1;marginBottom=0;html=1;" vertex="1" parent="1">
                    <mxGeometry x="160" y="180" width="140" height="130" as="geometry"/>
                </mxCell>
                <mxCell id="7" value="&lt;div style=&quot;color: rgb(255, 255, 255); background-color: rgb(0, 0, 0); font-family: &amp;quot;Droid Sans Mono&amp;quot;, &amp;quot;monospace&amp;quot;, monospace; font-size: 14px; line-height: 19px;&quot;&gt;&lt;span style=&quot;color: #9cdcfe;&quot;&gt;name&lt;/span&gt;&lt;/div&gt;" style="text;strokeColor=none;fillColor=none;align=left;verticalAlign=top;spacingLeft=4;spacingRight=4;overflow=hidden;rotatable=0;points=[[0,0.5],[1,0.5]];portConstraint=eastwest;whiteSpace=wrap;html=1;" vertex="1" parent="6">
                    <mxGeometry y="26" width="140" height="26" as="geometry"/>
                </mxCell>
                <mxCell id="8" value="&lt;div style=&quot;color: rgb(255, 255, 255); background-color: rgb(0, 0, 0); font-family: &amp;quot;Droid Sans Mono&amp;quot;, &amp;quot;monospace&amp;quot;, monospace; font-size: 14px; line-height: 19px;&quot;&gt;&lt;span style=&quot;color: #9cdcfe;&quot;&gt;price&lt;/span&gt;&lt;/div&gt;" style="text;strokeColor=none;fillColor=none;align=left;verticalAlign=top;spacingLeft=4;spacingRight=4;overflow=hidden;rotatable=0;points=[[0,0.5],[1,0.5]];portConstraint=eastwest;whiteSpace=wrap;html=1;" vertex="1" parent="6">
                    <mxGeometry y="52" width="140" height="26" as="geometry"/>
                </mxCell>
                <mxCell id="9" value="&lt;div style=&quot;color: rgb(255, 255, 255); background-color: rgb(0, 0, 0); font-family: &amp;quot;Droid Sans Mono&amp;quot;, &amp;quot;monospace&amp;quot;, monospace; font-size: 14px; line-height: 19px;&quot;&gt;&lt;span style=&quot;color: #9cdcfe;&quot;&gt;alcohol_content&lt;/span&gt;&lt;/div&gt;" style="text;strokeColor=none;fillColor=none;align=left;verticalAlign=top;spacingLeft=4;spacingRight=4;overflow=hidden;rotatable=0;points=[[0,0.5],[1,0.5]];portConstraint=eastwest;whiteSpace=wrap;html=1;" vertex="1" parent="6">
                    <mxGeometry y="78" width="140" height="26" as="geometry"/>
                </mxCell>
                <mxCell id="19" value="&lt;div style=&quot;color: rgb(255, 255, 255); background-color: rgb(0, 0, 0); font-family: &amp;quot;Droid Sans Mono&amp;quot;, &amp;quot;monospace&amp;quot;, monospace; font-size: 14px; line-height: 19px;&quot;&gt;&lt;div style=&quot;line-height: 19px;&quot;&gt;&lt;span style=&quot;color: #9cdcfe;&quot;&gt;id&lt;/span&gt;&lt;/div&gt;&lt;/div&gt;" style="text;strokeColor=none;fillColor=none;align=left;verticalAlign=top;spacingLeft=4;spacingRight=4;overflow=hidden;rotatable=0;points=[[0,0.5],[1,0.5]];portConstraint=eastwest;whiteSpace=wrap;html=1;" vertex="1" parent="6">
                    <mxGeometry y="104" width="140" height="26" as="geometry"/>
                </mxCell>
                <mxCell id="10" value="&lt;div style=&quot;color: rgb(255, 255, 255); background-color: rgb(0, 0, 0); font-family: &amp;quot;Droid Sans Mono&amp;quot;, &amp;quot;monospace&amp;quot;, monospace; font-size: 14px; line-height: 19px;&quot;&gt;&lt;span style=&quot;color: #4ec9b0;&quot;&gt;Customer&lt;/span&gt;&lt;/div&gt;" style="swimlane;fontStyle=0;childLayout=stackLayout;horizontal=1;startSize=26;fillColor=none;horizontalStack=0;resizeParent=1;resizeParentMax=0;resizeLast=0;collapsible=1;marginBottom=0;html=1;" vertex="1" parent="1">
                    <mxGeometry x="560" y="170" width="140" height="134" as="geometry"/>
                </mxCell>
                <mxCell id="11" value="&lt;div style=&quot;color: rgb(255, 255, 255); background-color: rgb(0, 0, 0); font-family: &amp;quot;Droid Sans Mono&amp;quot;, &amp;quot;monospace&amp;quot;, monospace; font-size: 14px; line-height: 19px;&quot;&gt;&lt;span style=&quot;color: #9cdcfe;&quot;&gt;first_name&lt;/span&gt;&lt;/div&gt;" style="text;strokeColor=none;fillColor=none;align=left;verticalAlign=top;spacingLeft=4;spacingRight=4;overflow=hidden;rotatable=0;points=[[0,0.5],[1,0.5]];portConstraint=eastwest;whiteSpace=wrap;html=1;" vertex="1" parent="10">
                    <mxGeometry y="26" width="140" height="26" as="geometry"/>
                </mxCell>
                <mxCell id="12" value="&lt;div style=&quot;color: rgb(255, 255, 255); background-color: rgb(0, 0, 0); font-family: &amp;quot;Droid Sans Mono&amp;quot;, &amp;quot;monospace&amp;quot;, monospace; font-size: 14px; line-height: 19px;&quot;&gt;&lt;span style=&quot;color: #9cdcfe;&quot;&gt;last_name&lt;/span&gt;&lt;/div&gt;" style="text;strokeColor=none;fillColor=none;align=left;verticalAlign=top;spacingLeft=4;spacingRight=4;overflow=hidden;rotatable=0;points=[[0,0.5],[1,0.5]];portConstraint=eastwest;whiteSpace=wrap;html=1;" vertex="1" parent="10">
                    <mxGeometry y="52" width="140" height="26" as="geometry"/>
                </mxCell>
                <mxCell id="13" value="&lt;div style=&quot;color: rgb(255, 255, 255); background-color: rgb(0, 0, 0); font-family: &amp;quot;Droid Sans Mono&amp;quot;, &amp;quot;monospace&amp;quot;, monospace; font-size: 14px; line-height: 19px;&quot;&gt;&lt;span style=&quot;color: #9cdcfe;&quot;&gt;age&lt;/span&gt;&lt;/div&gt;" style="text;strokeColor=none;fillColor=none;align=left;verticalAlign=top;spacingLeft=4;spacingRight=4;overflow=hidden;rotatable=0;points=[[0,0.5],[1,0.5]];portConstraint=eastwest;whiteSpace=wrap;html=1;" vertex="1" parent="10">
                    <mxGeometry y="78" width="140" height="30" as="geometry"/>
                </mxCell>
                <mxCell id="23" value="&lt;div style=&quot;color: rgb(255, 255, 255); background-color: rgb(0, 0, 0); font-family: &amp;quot;Droid Sans Mono&amp;quot;, &amp;quot;monospace&amp;quot;, monospace; font-size: 14px; line-height: 19px;&quot;&gt;&lt;span style=&quot;color: #9cdcfe;&quot;&gt;id&lt;/span&gt;&lt;/div&gt;" style="text;strokeColor=none;fillColor=none;align=left;verticalAlign=top;spacingLeft=4;spacingRight=4;overflow=hidden;rotatable=0;points=[[0,0.5],[1,0.5]];portConstraint=eastwest;whiteSpace=wrap;html=1;" vertex="1" parent="10">
                    <mxGeometry y="108" width="140" height="26" as="geometry"/>
                </mxCell>
                <mxCell id="15" style="edgeStyle=none;html=1;entryX=0.5;entryY=0;entryDx=0;entryDy=0;exitX=-0.029;exitY=0.939;exitDx=0;exitDy=0;exitPerimeter=0;" edge="1" parent="1" source="3" target="6">
                    <mxGeometry relative="1" as="geometry">
                        <Array as="points">
                            <mxPoint x="280" y="90"/>
                        </Array>
                    </mxGeometry>
                </mxCell>
                <mxCell id="16" style="edgeStyle=none;html=1;exitX=1;exitY=0.5;exitDx=0;exitDy=0;entryX=0.5;entryY=0;entryDx=0;entryDy=0;" edge="1" parent="1" source="4" target="10">
                    <mxGeometry relative="1" as="geometry">
                        <Array as="points">
                            <mxPoint x="630" y="120"/>
                        </Array>
                    </mxGeometry>
                </mxCell>
                <mxCell id="28" style="edgeStyle=none;html=1;entryX=0.429;entryY=1.231;entryDx=0;entryDy=0;entryPerimeter=0;" edge="1" parent="1" target="23">
                    <mxGeometry relative="1" as="geometry">
                        <mxPoint x="495" y="367.8064516129032" as="sourcePoint"/>
                        <Array as="points">
                            <mxPoint x="580" y="370"/>
                        </Array>
                    </mxGeometry>
                </mxCell>
                <mxCell id="29" style="edgeStyle=none;html=1;entryX=0.404;entryY=1.047;entryDx=0;entryDy=0;entryPerimeter=0;" edge="1" parent="1" target="19">
                    <mxGeometry relative="1" as="geometry">
                        <mxPoint x="355" y="374.65517241379314" as="sourcePoint"/>
                        <Array as="points">
                            <mxPoint x="280" y="370"/>
                        </Array>
                    </mxGeometry>
                </mxCell>
                <mxCell id="30" value="&lt;div style=&quot;color: rgb(255, 255, 255); background-color: rgb(0, 0, 0); font-family: &amp;quot;Droid Sans Mono&amp;quot;, &amp;quot;monospace&amp;quot;, monospace; font-weight: normal; font-size: 14px; line-height: 19px;&quot;&gt;&lt;span style=&quot;color: #9cdcfe;&quot;&gt;customer_drinks&lt;/span&gt;&lt;/div&gt;" style="swimlane;childLayout=stackLayout;resizeParent=1;resizeParentMax=0;startSize=20;html=1;" vertex="1" parent="1">
                    <mxGeometry x="245" y="360" width="360" height="130" as="geometry"/>
                </mxCell>
                <mxCell id="31" value="&lt;div style=&quot;color: rgb(255, 255, 255); background-color: rgb(0, 0, 0); font-family: &amp;quot;Droid Sans Mono&amp;quot;, &amp;quot;monospace&amp;quot;, monospace; font-weight: normal; font-size: 14px; line-height: 19px;&quot;&gt;&lt;span style=&quot;color: #9cdcfe;&quot;&gt;id&lt;/span&gt;&lt;/div&gt;" style="swimlane;startSize=20;html=1;" vertex="1" parent="30">
                    <mxGeometry y="20" width="120" height="110" as="geometry"/>
                </mxCell>
                <mxCell id="32" value="&lt;div style=&quot;color: rgb(255, 255, 255); background-color: rgb(0, 0, 0); font-family: &amp;quot;Droid Sans Mono&amp;quot;, &amp;quot;monospace&amp;quot;, monospace; font-weight: normal; font-size: 14px; line-height: 19px;&quot;&gt;&lt;span style=&quot;color: #ce9178;&quot;&gt;customer_id&lt;/span&gt;&lt;/div&gt;" style="swimlane;startSize=20;html=1;" vertex="1" parent="30">
                    <mxGeometry x="120" y="20" width="120" height="110" as="geometry"/>
                </mxCell>
                <mxCell id="33" value="&lt;div style=&quot;color: rgb(255, 255, 255); background-color: rgb(0, 0, 0); font-family: &amp;quot;Droid Sans Mono&amp;quot;, &amp;quot;monospace&amp;quot;, monospace; font-weight: normal; font-size: 14px; line-height: 19px;&quot;&gt;&lt;span style=&quot;color: #ce9178;&quot;&gt;drink_id&lt;/span&gt;&lt;/div&gt;" style="swimlane;startSize=20;html=1;" vertex="1" parent="30">
                    <mxGeometry x="240" y="20" width="120" height="110" as="geometry"/>
                </mxCell>
            </root>
        </mxGraphModel>
    </diagram>
</mxfile>